<svg width="141" height="184" viewBox="0 0 141 184" fill="none" xmlns="http://www.w3.org/2000/svg">
<path fill-rule="evenodd" clip-rule="evenodd" d="M94.7148 163.558C114.829 137.909 140.165 100.644 140.165 75.6758C140.165 34.2724 108.975 0.708374 70.4987 0.708374C32.0229 0.708374 0.832031 34.2724 0.832031 75.6758C0.832031 100.644 26.1685 137.909 46.2826 163.558C56.7765 176.94 62.0234 183.631 70.4987 183.631C78.9739 183.631 84.2209 176.94 94.7148 163.558ZM70.4987 105.208C56.0703 105.208 44.3737 93.5118 44.3737 79.0834C44.3737 64.6549 56.0703 52.9584 70.4987 52.9584C84.9271 52.9584 96.6237 64.6549 96.6237 79.0834C96.6237 93.5118 84.9271 105.208 70.4987 105.208Z" fill="#FFC55F"/>
</svg>
